<?xml version="1.0" encoding="UTF-8" standalone="no"?>
<!DOCTYPE svg PUBLIC "-//W3C//DTD SVG 1.1//EN" "http://www.w3.org/Graphics/SVG/1.1/DTD/svg11.dtd">
<svg width="100%" height="100%" viewBox="0 0 4000 2000" version="1.1" xmlns="http://www.w3.org/2000/svg" xmlns:xlink="http://www.w3.org/1999/xlink" xml:space="preserve" xmlns:serif="http://www.serif.com/" style="fill-rule:evenodd;clip-rule:evenodd;stroke-linejoin:round;stroke-miterlimit:2;">
    <g transform="matrix(1,0,0,1,0,-2295)">
        <g transform="matrix(1,0,0,1,0,2295)">
            <rect id="YarnSpinner-Logo-White-DarkBG" x="0" y="0" width="4000" height="2000" style="fill:none;"/>
            <g id="YarnSpinner-Logo-White-DarkBG1" serif:id="YarnSpinner-Logo-White-DarkBG">
                <g id="Layer-1" serif:id="Layer 1" transform="matrix(1,0,0,1,197.5,285.322)">
                    <g>
                        <g transform="matrix(1,0,0,1,860.101,524.984)">
                            <path d="M0,377.896C16.856,407.876 35.953,441.851 55.303,480.558C121.992,613.928 116.457,730.899 81.381,787.648C64.039,815.714 39.071,830.555 9.185,830.555C8.839,830.555 8.484,830.565 8.139,830.593L-530.195,869.85C-524.044,863.373 -518.407,856.027 -513.357,847.86C-466.184,771.538 -476.162,636.917 -538.185,512.89C-550.361,488.541 -562.315,466.326 -573.747,445.598C-573.858,445.367 -573.992,445.152 -574.115,444.927C-581.02,432.418 -587.775,420.321 -594.141,408.997C-659.71,292.361 -696.411,227.053 -647.903,85.507L-521.75,76.306C-521.729,76.304 -521.706,76.305 -521.683,76.304L-508.865,75.366L-251.584,56.602L-250.276,56.507L-60.138,42.639L-59.834,43.011C-106.179,188.991 -63.362,265.186 0,377.896M-596.875,874.713L-610.465,875.703C-636.479,875.61 -654.717,868.647 -666.216,854.421C-693.042,821.203 -684.1,747.289 -668.437,668.689C-668.4,668.484 -668.354,668.279 -668.316,668.074C-665.973,656.332 -663.481,644.487 -660.933,632.652C-646.242,564.347 -651.823,513.59 -677.51,481.791C-679.99,478.718 -682.592,475.996 -685.243,473.471L-594.759,466.874C-584.723,485.21 -574.334,504.71 -563.834,525.714C-497.145,659.084 -502.679,776.037 -537.746,832.787C-552.503,856.662 -572.767,870.961 -596.875,874.713M-688.972,626.623C-690.811,635.209 -692.612,643.684 -694.339,652.066L-825.385,661.624C-841.56,582.623 -822.295,536.729 -802.676,511.845C-783.056,486.961 -758.928,477.926 -747.504,477.926C-738.478,477.926 -715.769,480.054 -699.808,499.814C-680.124,524.194 -676.371,568.043 -688.972,626.623M-576.698,-141.517C-592.155,-74.729 -622.508,10.757 -640.088,56.184L-642.2,56.337C-632.295,-29.766 -616.488,-100.098 -601.174,-149.408L-576.698,-141.517ZM-569.061,-224.131C-569.014,-223.963 -568.958,-223.786 -568.912,-223.609C-566.392,-214.609 -566.573,-201.048 -568.66,-184.603L-586.548,-190.768C-579.97,-206.846 -573.929,-218.198 -569.061,-224.131M-505.956,-118.71C-521.436,-58.082 -531.667,12.34 -535.742,48.575L-608.512,53.881C-593.865,15.198 -565.089,-64.526 -549.427,-132.725L-505.956,-118.71ZM-447.965,-194.553C-445.571,-186.979 -447.71,-168.985 -452.935,-144.716L-467.258,-149.653C-460.239,-171.131 -453.495,-186.865 -447.965,-194.553M-478.745,-109.937L-462.752,-104.781C-473.353,-65.504 -488.277,-18.425 -504.555,27.619C-498.108,-24.02 -488.644,-71.653 -478.745,-109.937M-385.011,-79.717C-395.115,-37.116 -401.072,10.237 -404.052,38.972L-480.126,44.519C-467.589,9.517 -448.76,-45.522 -435.285,-95.925L-385.011,-79.717ZM-331.89,-141.192C-331.031,-139.745 -329.939,-137.598 -328.726,-134.5C-326.288,-128.296 -327.064,-116.842 -329.972,-102.336L-347.085,-108.235C-341.373,-125.388 -336.001,-136.351 -331.89,-141.192M-357.472,-70.838L-339.824,-65.149C-348.793,-36.407 -361.366,-3.719 -373.649,24.697C-369.12,-13.92 -363.401,-45.643 -357.472,-70.838M-273.83,-43.872C-278.671,-23.302 -282.776,1.461 -286.126,30.373L-346.768,34.794C-336.86,11.891 -322.794,-22.686 -312.485,-56.335L-273.83,-43.872ZM-225.793,-89.445C-224.505,-87.961 -222.479,-85.077 -220.053,-79.729C-219.367,-77.052 -220.042,-71.92 -221.775,-65.046L-236.086,-69.978C-231.958,-80.763 -228.285,-86.826 -225.793,-89.445M-246.318,-35.003L-233.423,-30.846C-239.472,-15.622 -247.179,1.741 -255.904,19.499C-252.973,-2.522 -249.671,-20.429 -246.318,-35.003M-88.288,15.946L-227.154,26.072C-219.815,11.003 -212.229,-5.709 -205.917,-21.978L-88.288,15.946ZM-180.781,-166.241C-129.48,-167.455 -77.097,-164.567 -50.328,-132.166C-13.756,-87.888 -31.922,-35.446 -48.223,-5.229L-57.713,-8.5L-180.781,-166.241ZM-300.547,-203.774C-308.28,-211.143 -302.778,-226.29 -292.989,-243.79L-251.811,-193.137C-273.853,-193.502 -292.301,-195.931 -300.547,-203.774M-272.107,-374.853C-259.147,-358.441 -271.984,-332.131 -288.852,-304.756L-346.684,-378.883C-310.017,-384.015 -279.99,-384.867 -272.107,-374.853M130.225,56.273L-20.735,4.244C0.586,-38.096 13.679,-99.692 -28.226,-150.423C-67.497,-197.973 -138.635,-196.625 -202.634,-194.249L-270.086,-280.704C-246.281,-318.178 -223.311,-359.316 -249.594,-392.625C-267.09,-414.779 -310.779,-413.996 -366.982,-404.899L-415.038,-466.493C-411.404,-478.932 -412.846,-492.77 -420.514,-504.415C-427.234,-514.607 -437.511,-521.58 -449.467,-524.044C-461.405,-526.48 -473.623,-524.165 -483.825,-517.445C-494.018,-510.725 -500.99,-500.448 -503.454,-488.492C-505.909,-476.526 -503.566,-464.327 -496.855,-454.134C-488.081,-440.815 -473.483,-433.581 -458.615,-433.581C-455.173,-433.581 -451.731,-434.083 -448.329,-434.872L-416.487,-395.704C-429.428,-393.077 -442.71,-390.285 -456.291,-387.416C-526.9,-372.52 -633.613,-349.988 -645.42,-374.321C-648.874,-381.443 -657.452,-384.411 -664.583,-380.958C-671.704,-377.495 -674.672,-368.917 -671.219,-361.795C-649.583,-317.292 -557.272,-336.79 -450.373,-359.368C-433.28,-362.974 -414.622,-366.91 -396.001,-370.503L-312.298,-267.542C-330.627,-237.042 -343.963,-205.533 -320.316,-183.016C-301.546,-165.134 -268.22,-163.605 -228.675,-164.678L-118.837,-29.567L-194.847,-55.765C-191.19,-70.634 -190.22,-83.229 -193.75,-91.079C-205.38,-116.952 -219.614,-120.396 -229.471,-118.903C-242.571,-116.801 -253.815,-103.459 -263.191,-79.32L-302.927,-93.016C-298.557,-114.434 -297.381,-133.149 -302.031,-144.991C-311.654,-169.473 -325.002,-173.029 -334.401,-171.666C-350.959,-169.32 -364.038,-147.31 -374.256,-117.6L-425.748,-135.347C-419.119,-166.781 -416.473,-192.889 -421.531,-205.772C-429.689,-226.512 -442.393,-227.986 -449.309,-227.016C-466.606,-224.564 -481.699,-196.742 -494.293,-158.971L-541.354,-175.19C-538.089,-198.196 -537.541,-217.915 -541.302,-231.337C-547.854,-254.728 -561.192,-257.201 -568.52,-256.539C-583.785,-255.237 -599.113,-233.82 -613.284,-199.983L-676.875,-221.899C-677.239,-223.105 -677.437,-224.337 -677.902,-225.522C-682.363,-236.891 -690.969,-245.842 -702.16,-250.733C-713.361,-255.614 -725.784,-255.857 -737.134,-251.405C-748.502,-246.943 -757.454,-238.337 -762.344,-227.146C-767.226,-215.955 -767.469,-203.541 -763.017,-192.173C-758.555,-180.804 -749.949,-171.853 -738.758,-166.972C-732.822,-164.377 -726.633,-163.145 -720.529,-163.145C-708.139,-163.145 -696.217,-168.297 -687.579,-177.265L-628.326,-158.162C-647.955,-95.594 -664.001,-11.552 -672.404,68.771C-728.972,227.59 -685.238,305.449 -619.137,423.053C-616.204,428.271 -613.123,433.774 -610.064,439.239L-747.436,449.253C-747.457,449.253 -747.483,449.252 -747.504,449.252C-768.58,449.252 -800.771,463.114 -825.198,494.092C-849.699,525.173 -874.014,582.688 -850.632,680.161C-848.99,686.984 -842.662,691.631 -835.643,691.119L-700.116,681.234C-715.601,763.585 -720.585,832.749 -688.514,872.436C-671.424,893.595 -645.047,904.338 -610.12,904.376L-609.821,904.376C-604.371,904.367 -599.022,903.984 -593.795,903.238L9.726,859.229C49.264,859.051 83.359,838.994 105.779,802.722C152.952,726.391 142.975,591.77 80.951,467.734C61.285,428.411 42.011,394.109 24.996,363.849C-35.77,255.746 -71.506,191.543 -37.842,70.064L87.682,224.468C90.519,227.949 94.645,229.76 98.816,229.76C101.943,229.76 105.098,228.743 107.739,226.633C113.891,221.742 114.945,212.8 110.11,206.603L-21.956,37.332L121.161,83.472C122.617,83.938 124.102,84.163 125.558,84.163C131.568,84.163 137.159,80.364 139.157,74.362C141.649,66.904 137.663,58.831 130.225,56.273" style="fill:#fff;fill-rule:nonzero;"/>
                        </g>
                        <g transform="matrix(1,0,0,1,301.626,730.192)">
                            <path d="M0,1.746L40.478,-47.023C42.557,-49.529 42.938,-53.044 41.446,-55.94C39.946,-58.844 36.828,-60.566 33.607,-60.312L-22.92,-56.004C-25.11,-55.837 -27.149,-54.79 -28.553,-53.092L-74.053,1.722C-76.854,5.094 -76.473,10.076 -73.196,12.988L-19.914,60.265C-18.422,61.59 -16.502,62.312 -14.519,62.312C-14.312,62.312 -14.106,62.304 -13.9,62.288L42.628,57.98C45.881,57.734 48.666,55.56 49.705,52.474C50.752,49.38 49.84,45.968 47.404,43.802L0,1.746Z" style="fill:#fff;fill-rule:nonzero;"/>
                        </g>
                        <g transform="matrix(1,0,0,1,426.255,661.595)">
                            <path d="M0,118.791C1.491,120.116 3.411,120.838 5.395,120.838C5.601,120.838 5.807,120.83 6.014,120.814L62.541,116.506C65.794,116.26 68.579,114.086 69.618,111C70.665,107.906 69.753,104.494 67.317,102.329L19.914,60.272L60.391,11.503C62.47,8.997 62.851,5.482 61.359,2.586C59.852,-0.318 56.702,-2.047 53.521,-1.786L-3.007,2.522C-5.197,2.689 -7.236,3.736 -8.64,5.434L-54.14,60.248C-56.94,63.62 -56.56,68.602 -53.283,71.514L0,118.791Z" style="fill:#fff;fill-rule:nonzero;"/>
                        </g>
                        <g transform="matrix(1,0,0,1,689.649,1003.1)">
                            <path d="M0,-205.872L-112.809,-197.859C-152.414,-194.408 -181.84,-159.372 -178.397,-119.76C-174.946,-80.146 -139.8,-50.721 -100.607,-54.147L-55.79,-56.377L10.401,1.412C11.909,2.736 13.813,3.419 15.74,3.419C16.962,3.419 18.184,3.142 19.327,2.586C22.262,1.142 24.047,-1.929 23.849,-5.205L20.294,-63.304C55.861,-70.364 81.241,-103.329 78.028,-140.276C74.577,-179.865 39.446,-209.291 0,-205.872" style="fill:#fff;fill-rule:nonzero;"/>
                        </g>
                        <g transform="matrix(1,0,0,1,633.599,1100.92)">
                            <path d="M0,20.856C12.678,6.282 18.93,-12.283 17.605,-31.426C16.272,-50.571 7.521,-68.096 -7.053,-80.774C-21.619,-93.445 -40.152,-99.68 -59.463,-98.363L-172.01,-88.755C-211.647,-85.971 -241.645,-51.475 -238.899,-11.823C-237.566,7.322 -228.808,24.847 -214.241,37.525C-201.698,48.442 -186.188,54.59 -169.9,55.241L-164.37,113.181C-164.061,116.442 -161.823,119.203 -158.698,120.17C-157.904,120.417 -157.087,120.536 -156.286,120.536C-153.921,120.536 -151.629,119.504 -150.058,117.624L-93.665,50.251L-49.348,45.514C-30.204,44.181 -12.678,35.43 0,20.856" style="fill:#fff;fill-rule:nonzero;"/>
                        </g>
                        <g transform="matrix(1,0,0,1,782.618,1277.49)">
                            <path d="M0,-102.788C-1.047,-99.694 -0.135,-96.283 2.301,-94.117L49.705,-52.053L9.227,-3.292C7.148,-0.785 6.767,2.73 8.259,5.626C9.663,8.339 12.456,10.021 15.479,10.021C15.685,10.021 15.891,10.013 16.097,9.997L72.625,5.69C74.814,5.523 76.854,4.476 78.258,2.777L123.758,-52.036C126.559,-55.408 126.178,-60.391 122.9,-63.303L69.618,-110.579C67.968,-112.047 65.747,-112.809 63.604,-112.602L7.077,-108.294C3.824,-108.049 1.039,-105.875 0,-102.788" style="fill:#fff;fill-rule:nonzero;"/>
                        </g>
                        <g transform="matrix(1,0,0,1,707.693,1295.39)">
                            <path d="M0,-118.404C-1.65,-119.863 -3.8,-120.601 -6.014,-120.426L-62.541,-116.119C-65.794,-115.873 -68.579,-113.699 -69.618,-110.613C-70.665,-107.518 -69.753,-104.107 -67.317,-101.941L-19.914,-59.877L-60.391,-11.116C-62.47,-8.609 -62.851,-5.094 -61.359,-2.199C-59.955,0.515 -57.162,2.197 -54.139,2.197C-53.933,2.197 -53.727,2.189 -53.521,2.173L3.007,-2.135C5.197,-2.301 7.236,-3.349 8.64,-5.047L54.14,-59.861C56.94,-63.233 56.56,-68.216 53.283,-71.127L0,-118.404Z" style="fill:#fff;fill-rule:nonzero;"/>
                        </g>
                    </g>
                    <g transform="matrix(0.781847,0,0,0.781847,321.705,150.861)">
                        <g transform="matrix(724.548,0,0,724.548,1146,540)">
                            <path d="M0.24,-0.246L0.21,-0.246L0.009,-0.7L0.153,-0.7L0.297,-0.366L0.315,-0.366L0.459,-0.7L0.603,-0.7L0.402,-0.246L0.372,-0.246L0.372,-0L0.24,-0L0.24,-0.246Z" style="fill:#fff;fill-rule:nonzero;"/>
                        </g>
                        <g transform="matrix(724.548,0,0,724.548,1589.42,540)">
                            <path d="M0.399,-0.072C0.386,-0.041 0.367,-0.019 0.343,-0.006C0.319,0.008 0.291,0.014 0.259,0.014C0.229,0.014 0.201,0.008 0.175,-0.003C0.148,-0.014 0.125,-0.031 0.105,-0.053C0.085,-0.075 0.069,-0.102 0.058,-0.133C0.046,-0.164 0.04,-0.2 0.04,-0.24L0.04,-0.256C0.04,-0.295 0.046,-0.331 0.057,-0.362C0.068,-0.393 0.084,-0.42 0.103,-0.442C0.122,-0.464 0.145,-0.481 0.171,-0.493C0.196,-0.504 0.224,-0.51 0.253,-0.51C0.288,-0.51 0.317,-0.504 0.339,-0.492C0.36,-0.48 0.377,-0.461 0.39,-0.436L0.408,-0.436L0.408,-0.496L0.534,-0.496L0.534,-0.15C0.534,-0.13 0.543,-0.12 0.561,-0.12L0.58,-0.12L0.58,-0L0.494,-0C0.471,-0 0.453,-0.007 0.439,-0.02C0.424,-0.033 0.417,-0.051 0.417,-0.072L0.399,-0.072ZM0.287,-0.106C0.324,-0.106 0.353,-0.118 0.375,-0.143C0.397,-0.167 0.408,-0.2 0.408,-0.242L0.408,-0.254C0.408,-0.296 0.397,-0.329 0.375,-0.354C0.353,-0.378 0.324,-0.39 0.287,-0.39C0.25,-0.39 0.221,-0.378 0.199,-0.354C0.177,-0.329 0.166,-0.296 0.166,-0.254L0.166,-0.242C0.166,-0.2 0.177,-0.167 0.199,-0.143C0.221,-0.118 0.25,-0.106 0.287,-0.106Z" style="fill:#fff;fill-rule:nonzero;"/>
                        </g>
                        <g transform="matrix(724.548,0,0,724.548,2032.85,540)">
                            <path d="M0.054,-0.496L0.264,-0.496L0.264,-0.424L0.282,-0.424C0.291,-0.451 0.307,-0.472 0.33,-0.488C0.352,-0.503 0.379,-0.51 0.41,-0.51C0.459,-0.51 0.499,-0.495 0.529,-0.464C0.559,-0.432 0.574,-0.385 0.574,-0.322L0.574,-0.3L0.444,-0.288L0.444,-0.302C0.444,-0.329 0.437,-0.351 0.423,-0.368C0.409,-0.384 0.388,-0.392 0.36,-0.392C0.332,-0.392 0.31,-0.382 0.294,-0.363C0.278,-0.344 0.27,-0.316 0.27,-0.28L0.27,-0.12L0.384,-0.12L0.384,-0L0.042,-0L0.042,-0.12L0.144,-0.12L0.144,-0.376L0.054,-0.376L0.054,-0.496Z" style="fill:#fff;fill-rule:nonzero;"/>
                        </g>
                        <g transform="matrix(724.548,0,0,724.548,2476.27,540)">
                            <path d="M0.204,-0L0.078,-0L0.078,-0.496L0.204,-0.496L0.204,-0.422L0.222,-0.422C0.233,-0.45 0.252,-0.472 0.277,-0.487C0.302,-0.502 0.332,-0.51 0.366,-0.51C0.39,-0.51 0.413,-0.506 0.434,-0.499C0.455,-0.491 0.473,-0.479 0.489,-0.463C0.505,-0.447 0.518,-0.427 0.527,-0.402C0.536,-0.377 0.54,-0.348 0.54,-0.314L0.54,-0L0.414,-0L0.414,-0.282C0.414,-0.317 0.406,-0.345 0.389,-0.366C0.372,-0.386 0.347,-0.396 0.315,-0.396C0.278,-0.396 0.25,-0.384 0.232,-0.359C0.213,-0.333 0.204,-0.3 0.204,-0.258L0.204,-0Z" style="fill:#fff;fill-rule:nonzero;"/>
                        </g>
                        <g transform="matrix(724.548,0,0,724.548,1146,1264.55)">
                            <path d="M0.426,-0.486C0.426,-0.514 0.415,-0.538 0.394,-0.559C0.372,-0.58 0.341,-0.59 0.302,-0.59C0.269,-0.59 0.242,-0.583 0.223,-0.57C0.204,-0.556 0.194,-0.537 0.194,-0.514C0.194,-0.502 0.196,-0.491 0.201,-0.482C0.206,-0.472 0.214,-0.463 0.226,-0.456C0.237,-0.448 0.253,-0.441 0.272,-0.435C0.291,-0.429 0.315,-0.423 0.344,-0.418C0.417,-0.405 0.473,-0.382 0.512,-0.351C0.551,-0.32 0.57,-0.273 0.57,-0.212L0.57,-0.2C0.57,-0.167 0.564,-0.138 0.553,-0.112C0.541,-0.085 0.524,-0.063 0.502,-0.044C0.48,-0.025 0.453,-0.011 0.422,-0.001C0.391,0.009 0.355,0.014 0.316,0.014C0.27,0.014 0.23,0.008 0.195,-0.006C0.16,-0.019 0.13,-0.037 0.107,-0.06C0.084,-0.083 0.066,-0.11 0.054,-0.141C0.042,-0.171 0.036,-0.205 0.036,-0.242L0.036,-0.272L0.168,-0.272L0.168,-0.248C0.168,-0.206 0.18,-0.172 0.205,-0.148C0.229,-0.123 0.267,-0.11 0.318,-0.11C0.358,-0.11 0.388,-0.119 0.407,-0.136C0.426,-0.153 0.436,-0.174 0.436,-0.198C0.436,-0.209 0.434,-0.22 0.43,-0.231C0.426,-0.241 0.419,-0.25 0.409,-0.259C0.399,-0.267 0.385,-0.274 0.368,-0.281C0.351,-0.288 0.329,-0.293 0.302,-0.298C0.267,-0.304 0.234,-0.312 0.205,-0.322C0.176,-0.331 0.15,-0.344 0.129,-0.36C0.107,-0.376 0.09,-0.396 0.078,-0.42C0.066,-0.444 0.06,-0.473 0.06,-0.508L0.06,-0.514C0.06,-0.543 0.066,-0.569 0.078,-0.594C0.089,-0.618 0.106,-0.639 0.127,-0.657C0.148,-0.675 0.173,-0.689 0.203,-0.699C0.232,-0.709 0.265,-0.714 0.302,-0.714C0.343,-0.714 0.38,-0.708 0.412,-0.697C0.444,-0.685 0.471,-0.669 0.493,-0.649C0.514,-0.629 0.531,-0.606 0.542,-0.58C0.553,-0.554 0.558,-0.527 0.558,-0.498L0.558,-0.462L0.426,-0.462L0.426,-0.486Z" style="fill:#fff;fill-rule:nonzero;"/>
                        </g>
                        <g transform="matrix(724.548,0,0,724.548,1589.42,1264.55)">
                            <path d="M0.178,0.2L0.052,0.2L0.052,-0.496L0.178,-0.496L0.178,-0.424L0.196,-0.424C0.209,-0.451 0.229,-0.472 0.254,-0.488C0.279,-0.503 0.312,-0.51 0.351,-0.51C0.38,-0.51 0.408,-0.504 0.435,-0.493C0.461,-0.482 0.484,-0.465 0.504,-0.444C0.523,-0.422 0.539,-0.395 0.551,-0.364C0.562,-0.333 0.568,-0.297 0.568,-0.257L0.568,-0.239C0.568,-0.198 0.562,-0.162 0.551,-0.131C0.54,-0.1 0.524,-0.073 0.505,-0.052C0.486,-0.03 0.463,-0.014 0.437,-0.003C0.41,0.009 0.382,0.014 0.351,0.014C0.328,0.014 0.309,0.012 0.292,0.007C0.275,0.002 0.261,-0.004 0.249,-0.012C0.236,-0.02 0.226,-0.029 0.218,-0.04C0.209,-0.05 0.202,-0.061 0.196,-0.072L0.178,-0.072L0.178,0.2ZM0.31,-0.106C0.349,-0.106 0.381,-0.118 0.406,-0.143C0.43,-0.167 0.442,-0.2 0.442,-0.242L0.442,-0.254C0.442,-0.296 0.43,-0.329 0.406,-0.354C0.381,-0.378 0.349,-0.39 0.31,-0.39C0.271,-0.39 0.239,-0.378 0.215,-0.353C0.19,-0.327 0.178,-0.295 0.178,-0.254L0.178,-0.242C0.178,-0.201 0.19,-0.169 0.215,-0.144C0.239,-0.119 0.271,-0.106 0.31,-0.106Z" style="fill:#fff;fill-rule:nonzero;"/>
                        </g>
                        <g transform="matrix(724.548,0,0,724.548,2032.85,1264.55)">
                            <path d="M0.087,-0.12L0.255,-0.12L0.255,-0.376L0.099,-0.376L0.099,-0.496L0.381,-0.496L0.381,-0.12L0.525,-0.12L0.525,-0L0.087,-0L0.087,-0.12ZM0.412,-0.643C0.412,-0.63 0.41,-0.617 0.405,-0.606C0.4,-0.594 0.393,-0.584 0.384,-0.576C0.375,-0.567 0.365,-0.561 0.354,-0.556C0.342,-0.551 0.33,-0.548 0.317,-0.548C0.304,-0.548 0.291,-0.551 0.28,-0.556C0.269,-0.561 0.259,-0.567 0.25,-0.576C0.241,-0.584 0.235,-0.594 0.23,-0.606C0.225,-0.617 0.222,-0.63 0.222,-0.643C0.222,-0.656 0.225,-0.669 0.23,-0.681C0.235,-0.692 0.241,-0.702 0.25,-0.711C0.259,-0.719 0.269,-0.725 0.28,-0.731C0.291,-0.736 0.304,-0.738 0.317,-0.738C0.33,-0.738 0.342,-0.736 0.354,-0.731C0.365,-0.725 0.375,-0.719 0.384,-0.711C0.393,-0.702 0.4,-0.692 0.405,-0.681C0.41,-0.669 0.412,-0.656 0.412,-0.643Z" style="fill:#fff;fill-rule:nonzero;"/>
                        </g>
                        <g transform="matrix(724.548,0,0,724.548,2476.27,1264.55)">
                            <path d="M0.204,-0L0.078,-0L0.078,-0.496L0.204,-0.496L0.204,-0.422L0.222,-0.422C0.233,-0.45 0.252,-0.472 0.277,-0.487C0.302,-0.502 0.332,-0.51 0.366,-0.51C0.39,-0.51 0.413,-0.506 0.434,-0.499C0.455,-0.491 0.473,-0.479 0.489,-0.463C0.505,-0.447 0.518,-0.427 0.527,-0.402C0.536,-0.377 0.54,-0.348 0.54,-0.314L0.54,-0L0.414,-0L0.414,-0.282C0.414,-0.317 0.406,-0.345 0.389,-0.366C0.372,-0.386 0.347,-0.396 0.315,-0.396C0.278,-0.396 0.25,-0.384 0.232,-0.359C0.213,-0.333 0.204,-0.3 0.204,-0.258L0.204,-0Z" style="fill:#fff;fill-rule:nonzero;"/>
                        </g>
                        <g transform="matrix(724.548,0,0,724.548,2919.69,1264.55)">
                            <path d="M0.204,-0L0.078,-0L0.078,-0.496L0.204,-0.496L0.204,-0.422L0.222,-0.422C0.233,-0.45 0.252,-0.472 0.277,-0.487C0.302,-0.502 0.332,-0.51 0.366,-0.51C0.39,-0.51 0.413,-0.506 0.434,-0.499C0.455,-0.491 0.473,-0.479 0.489,-0.463C0.505,-0.447 0.518,-0.427 0.527,-0.402C0.536,-0.377 0.54,-0.348 0.54,-0.314L0.54,-0L0.414,-0L0.414,-0.282C0.414,-0.317 0.406,-0.345 0.389,-0.366C0.372,-0.386 0.347,-0.396 0.315,-0.396C0.278,-0.396 0.25,-0.384 0.232,-0.359C0.213,-0.333 0.204,-0.3 0.204,-0.258L0.204,-0Z" style="fill:#fff;fill-rule:nonzero;"/>
                        </g>
                        <g transform="matrix(724.548,0,0,724.548,3363.12,1264.55)">
                            <path d="M0.189,-0.207C0.19,-0.192 0.193,-0.179 0.2,-0.167C0.206,-0.154 0.215,-0.143 0.226,-0.135C0.237,-0.126 0.249,-0.118 0.264,-0.114C0.278,-0.109 0.293,-0.106 0.309,-0.106C0.34,-0.106 0.364,-0.112 0.381,-0.123C0.398,-0.134 0.41,-0.147 0.417,-0.162L0.525,-0.102C0.519,-0.089 0.511,-0.076 0.5,-0.063C0.489,-0.049 0.475,-0.036 0.459,-0.025C0.442,-0.014 0.421,-0.004 0.397,0.003C0.372,0.01 0.344,0.014 0.311,0.014C0.274,0.014 0.24,0.008 0.209,-0.004C0.178,-0.016 0.152,-0.033 0.13,-0.056C0.107,-0.079 0.09,-0.106 0.078,-0.139C0.065,-0.172 0.059,-0.209 0.059,-0.25L0.059,-0.256C0.059,-0.294 0.066,-0.329 0.079,-0.36C0.092,-0.391 0.109,-0.418 0.132,-0.44C0.155,-0.462 0.181,-0.479 0.212,-0.492C0.242,-0.504 0.274,-0.51 0.309,-0.51C0.352,-0.51 0.388,-0.503 0.419,-0.488C0.45,-0.472 0.475,-0.454 0.495,-0.431C0.515,-0.408 0.53,-0.382 0.539,-0.355C0.548,-0.327 0.553,-0.3 0.553,-0.274L0.553,-0.207L0.189,-0.207ZM0.308,-0.396C0.276,-0.396 0.25,-0.388 0.23,-0.372C0.21,-0.355 0.197,-0.336 0.191,-0.315L0.425,-0.315C0.421,-0.338 0.409,-0.358 0.388,-0.373C0.367,-0.388 0.34,-0.396 0.308,-0.396Z" style="fill:#fff;fill-rule:nonzero;"/>
                        </g>
                        <g transform="matrix(724.548,0,0,724.548,3806.54,1264.55)">
                            <path d="M0.054,-0.496L0.264,-0.496L0.264,-0.424L0.282,-0.424C0.291,-0.451 0.307,-0.472 0.33,-0.488C0.352,-0.503 0.379,-0.51 0.41,-0.51C0.459,-0.51 0.499,-0.495 0.529,-0.464C0.559,-0.432 0.574,-0.385 0.574,-0.322L0.574,-0.3L0.444,-0.288L0.444,-0.302C0.444,-0.329 0.437,-0.351 0.423,-0.368C0.409,-0.384 0.388,-0.392 0.36,-0.392C0.332,-0.392 0.31,-0.382 0.294,-0.363C0.278,-0.344 0.27,-0.316 0.27,-0.28L0.27,-0.12L0.384,-0.12L0.384,-0L0.042,-0L0.042,-0.12L0.144,-0.12L0.144,-0.376L0.054,-0.376L0.054,-0.496Z" style="fill:#fff;fill-rule:nonzero;"/>
                        </g>
                    </g>
                </g>
            </g>
        </g>
    </g>
</svg>
